<mxfile host="app.diagrams.net" agent="Mozilla/5.0 (X11; Linux x86_64) AppleWebKit/537.36 (KHTML, like Gecko) Chrome/116.0.5845.1023 YaBrowser/23.9.1.1023 (corp) Yowser/2.5 Safari/537.36" version="24.7.17">
  <diagram name="Страница — 1" id="KOfuctgr5atsZWtjFmz6">
    <mxGraphModel dx="2213" dy="831" grid="1" gridSize="10" guides="1" tooltips="1" connect="1" arrows="1" fold="1" page="1" pageScale="1" pageWidth="827" pageHeight="1169" math="0" shadow="0">
      <root>
        <mxCell id="0" />
        <mxCell id="1" parent="0" />
        <mxCell id="G3nKX9JDyX26bgXYhGSn-31" value="" style="group;movable=0;resizable=0;rotatable=0;deletable=0;editable=0;locked=1;connectable=0;" vertex="1" connectable="0" parent="1">
          <mxGeometry x="-170" y="80" width="740" height="580" as="geometry" />
        </mxCell>
        <mxCell id="G3nKX9JDyX26bgXYhGSn-30" value="" style="html=1;whiteSpace=wrap;fillColor=#E6D0DE;movable=1;resizable=1;rotatable=1;deletable=1;editable=1;locked=0;connectable=1;strokeWidth=0;" vertex="1" parent="G3nKX9JDyX26bgXYhGSn-31">
          <mxGeometry y="20" width="740" height="560" as="geometry" />
        </mxCell>
        <mxCell id="G3nKX9JDyX26bgXYhGSn-8" value="&lt;font color=&quot;#c64e4e&quot;&gt;Ресторан по доставке блюд&lt;/font&gt;" style="html=1;whiteSpace=wrap;fillColor=#E6D0DE;movable=1;resizable=1;rotatable=1;deletable=1;editable=1;locked=0;connectable=1;strokeWidth=0;" vertex="1" parent="G3nKX9JDyX26bgXYhGSn-31">
          <mxGeometry width="740" height="40" as="geometry" />
        </mxCell>
        <mxCell id="G3nKX9JDyX26bgXYhGSn-49" style="rounded=0;orthogonalLoop=1;jettySize=auto;html=1;endArrow=none;endFill=0;" edge="1" parent="1" source="G3nKX9JDyX26bgXYhGSn-1" target="G3nKX9JDyX26bgXYhGSn-16">
          <mxGeometry relative="1" as="geometry" />
        </mxCell>
        <mxCell id="G3nKX9JDyX26bgXYhGSn-1" value="Сотрудник ресторана" style="shape=umlActor;verticalLabelPosition=bottom;verticalAlign=top;html=1;outlineConnect=0;" vertex="1" parent="1">
          <mxGeometry x="-428" y="190" width="30" height="60" as="geometry" />
        </mxCell>
        <mxCell id="G3nKX9JDyX26bgXYhGSn-20" style="rounded=0;orthogonalLoop=1;jettySize=auto;html=1;endArrow=none;endFill=0;" edge="1" parent="1" source="G3nKX9JDyX26bgXYhGSn-2" target="G3nKX9JDyX26bgXYhGSn-9">
          <mxGeometry relative="1" as="geometry" />
        </mxCell>
        <mxCell id="G3nKX9JDyX26bgXYhGSn-43" style="rounded=0;orthogonalLoop=1;jettySize=auto;html=1;entryX=1;entryY=0.5;entryDx=0;entryDy=0;endArrow=none;endFill=0;" edge="1" parent="1" source="G3nKX9JDyX26bgXYhGSn-2" target="G3nKX9JDyX26bgXYhGSn-37">
          <mxGeometry relative="1" as="geometry" />
        </mxCell>
        <mxCell id="G3nKX9JDyX26bgXYhGSn-2" value="Покупатель" style="shape=umlActor;verticalLabelPosition=bottom;verticalAlign=top;html=1;outlineConnect=0;" vertex="1" parent="1">
          <mxGeometry x="690" y="110" width="40" height="70" as="geometry" />
        </mxCell>
        <mxCell id="G3nKX9JDyX26bgXYhGSn-48" style="rounded=0;orthogonalLoop=1;jettySize=auto;html=1;endArrow=open;endFill=0;dashed=1;" edge="1" parent="1" source="G3nKX9JDyX26bgXYhGSn-4" target="G3nKX9JDyX26bgXYhGSn-1">
          <mxGeometry relative="1" as="geometry" />
        </mxCell>
        <mxCell id="G3nKX9JDyX26bgXYhGSn-4" value="Повар" style="shape=umlActor;verticalLabelPosition=bottom;verticalAlign=top;html=1;outlineConnect=0;" vertex="1" parent="1">
          <mxGeometry x="-330" y="300" width="30" height="60" as="geometry" />
        </mxCell>
        <mxCell id="G3nKX9JDyX26bgXYhGSn-44" style="rounded=0;orthogonalLoop=1;jettySize=auto;html=1;endArrow=none;endFill=0;" edge="1" parent="1" source="G3nKX9JDyX26bgXYhGSn-5" target="G3nKX9JDyX26bgXYhGSn-39">
          <mxGeometry relative="1" as="geometry" />
        </mxCell>
        <mxCell id="G3nKX9JDyX26bgXYhGSn-47" style="rounded=0;orthogonalLoop=1;jettySize=auto;html=1;endArrow=open;endFill=0;dashed=1;" edge="1" parent="1" source="G3nKX9JDyX26bgXYhGSn-5" target="G3nKX9JDyX26bgXYhGSn-1">
          <mxGeometry relative="1" as="geometry" />
        </mxCell>
        <mxCell id="G3nKX9JDyX26bgXYhGSn-5" value="Курьер" style="shape=umlActor;verticalLabelPosition=bottom;verticalAlign=top;html=1;outlineConnect=0;" vertex="1" parent="1">
          <mxGeometry x="-350" y="440" width="30" height="60" as="geometry" />
        </mxCell>
        <mxCell id="G3nKX9JDyX26bgXYhGSn-9" value="Просмотр списка блюд" style="ellipse;whiteSpace=wrap;html=1;" vertex="1" parent="1">
          <mxGeometry x="380" y="120" width="120" height="40" as="geometry" />
        </mxCell>
        <mxCell id="G3nKX9JDyX26bgXYhGSn-24" style="rounded=0;orthogonalLoop=1;jettySize=auto;html=1;exitX=1;exitY=0.5;exitDx=0;exitDy=0;endArrow=none;endFill=0;" edge="1" parent="1" source="G3nKX9JDyX26bgXYhGSn-10" target="G3nKX9JDyX26bgXYhGSn-2">
          <mxGeometry relative="1" as="geometry" />
        </mxCell>
        <mxCell id="G3nKX9JDyX26bgXYhGSn-25" style="rounded=0;orthogonalLoop=1;jettySize=auto;html=1;exitX=0;exitY=0.5;exitDx=0;exitDy=0;entryX=1;entryY=0.5;entryDx=0;entryDy=0;endArrow=open;endFill=0;startArrow=none;startFill=0;dashed=1;" edge="1" parent="1" source="G3nKX9JDyX26bgXYhGSn-10" target="G3nKX9JDyX26bgXYhGSn-14">
          <mxGeometry relative="1" as="geometry" />
        </mxCell>
        <mxCell id="G3nKX9JDyX26bgXYhGSn-36" value="включает" style="edgeLabel;html=1;align=center;verticalAlign=middle;resizable=0;points=[];" vertex="1" connectable="0" parent="G3nKX9JDyX26bgXYhGSn-25">
          <mxGeometry x="0.0687" y="2" relative="1" as="geometry">
            <mxPoint as="offset" />
          </mxGeometry>
        </mxCell>
        <mxCell id="G3nKX9JDyX26bgXYhGSn-10" value="заказ блюд" style="ellipse;whiteSpace=wrap;html=1;" vertex="1" parent="1">
          <mxGeometry x="320" y="250" width="120" height="40" as="geometry" />
        </mxCell>
        <mxCell id="G3nKX9JDyX26bgXYhGSn-28" style="rounded=0;orthogonalLoop=1;jettySize=auto;html=1;exitX=1;exitY=0.5;exitDx=0;exitDy=0;endArrow=none;endFill=0;startArrow=open;startFill=0;dashed=1;" edge="1" parent="1" source="G3nKX9JDyX26bgXYhGSn-11">
          <mxGeometry relative="1" as="geometry">
            <mxPoint x="320" y="270" as="targetPoint" />
          </mxGeometry>
        </mxCell>
        <mxCell id="G3nKX9JDyX26bgXYhGSn-33" value="включает" style="edgeLabel;html=1;align=center;verticalAlign=middle;resizable=0;points=[];" vertex="1" connectable="0" parent="G3nKX9JDyX26bgXYhGSn-28">
          <mxGeometry x="-0.154" relative="1" as="geometry">
            <mxPoint as="offset" />
          </mxGeometry>
        </mxCell>
        <mxCell id="G3nKX9JDyX26bgXYhGSn-11" value="заказ блюд" style="ellipse;whiteSpace=wrap;html=1;" vertex="1" parent="1">
          <mxGeometry x="140" y="400" width="120" height="40" as="geometry" />
        </mxCell>
        <mxCell id="G3nKX9JDyX26bgXYhGSn-27" style="rounded=0;orthogonalLoop=1;jettySize=auto;html=1;exitX=1;exitY=0.5;exitDx=0;exitDy=0;endArrow=none;endFill=0;startArrow=open;startFill=0;dashed=1;" edge="1" parent="1" source="G3nKX9JDyX26bgXYhGSn-12">
          <mxGeometry relative="1" as="geometry">
            <mxPoint x="320" y="270" as="targetPoint" />
          </mxGeometry>
        </mxCell>
        <mxCell id="G3nKX9JDyX26bgXYhGSn-34" value="включает" style="edgeLabel;html=1;align=center;verticalAlign=middle;resizable=0;points=[];" vertex="1" connectable="0" parent="G3nKX9JDyX26bgXYhGSn-27">
          <mxGeometry x="-0.1168" y="-1" relative="1" as="geometry">
            <mxPoint as="offset" />
          </mxGeometry>
        </mxCell>
        <mxCell id="G3nKX9JDyX26bgXYhGSn-12" value="заказ блюд" style="ellipse;whiteSpace=wrap;html=1;" vertex="1" parent="1">
          <mxGeometry x="110" y="330" width="120" height="40" as="geometry" />
        </mxCell>
        <mxCell id="G3nKX9JDyX26bgXYhGSn-26" style="rounded=0;orthogonalLoop=1;jettySize=auto;html=1;exitX=1;exitY=0.5;exitDx=0;exitDy=0;entryX=0;entryY=0.5;entryDx=0;entryDy=0;endArrow=none;endFill=0;startArrow=open;startFill=0;dashed=1;" edge="1" parent="1" source="G3nKX9JDyX26bgXYhGSn-13" target="G3nKX9JDyX26bgXYhGSn-10">
          <mxGeometry relative="1" as="geometry" />
        </mxCell>
        <mxCell id="G3nKX9JDyX26bgXYhGSn-35" value="включает" style="edgeLabel;html=1;align=center;verticalAlign=middle;resizable=0;points=[];" vertex="1" connectable="0" parent="G3nKX9JDyX26bgXYhGSn-26">
          <mxGeometry x="-0.171" y="-2" relative="1" as="geometry">
            <mxPoint as="offset" />
          </mxGeometry>
        </mxCell>
        <mxCell id="G3nKX9JDyX26bgXYhGSn-13" value="Ввод данных для&amp;nbsp;&lt;br&gt;доставки" style="ellipse;whiteSpace=wrap;html=1;" vertex="1" parent="1">
          <mxGeometry x="110" y="270" width="120" height="40" as="geometry" />
        </mxCell>
        <mxCell id="G3nKX9JDyX26bgXYhGSn-14" value="Выбор блюд" style="ellipse;whiteSpace=wrap;html=1;" vertex="1" parent="1">
          <mxGeometry x="110" y="210" width="120" height="40" as="geometry" />
        </mxCell>
        <mxCell id="G3nKX9JDyX26bgXYhGSn-45" style="rounded=0;orthogonalLoop=1;jettySize=auto;html=1;exitX=0;exitY=0.5;exitDx=0;exitDy=0;endArrow=none;endFill=0;" edge="1" parent="1" source="G3nKX9JDyX26bgXYhGSn-15" target="G3nKX9JDyX26bgXYhGSn-4">
          <mxGeometry relative="1" as="geometry" />
        </mxCell>
        <mxCell id="G3nKX9JDyX26bgXYhGSn-15" value="Просмотр информации о блюдах и заказе" style="ellipse;whiteSpace=wrap;html=1;" vertex="1" parent="1">
          <mxGeometry x="-110" y="370" width="180" height="40" as="geometry" />
        </mxCell>
        <mxCell id="G3nKX9JDyX26bgXYhGSn-16" value="Изменение статуса готовности заказа" style="ellipse;whiteSpace=wrap;html=1;" vertex="1" parent="1">
          <mxGeometry x="-110" y="170" width="170" height="40" as="geometry" />
        </mxCell>
        <mxCell id="G3nKX9JDyX26bgXYhGSn-37" value="Просмотр информации о местоположении курьера" style="ellipse;whiteSpace=wrap;html=1;" vertex="1" parent="1">
          <mxGeometry x="230" y="545" width="180" height="40" as="geometry" />
        </mxCell>
        <mxCell id="G3nKX9JDyX26bgXYhGSn-40" style="rounded=0;orthogonalLoop=1;jettySize=auto;html=1;exitX=0;exitY=0.5;exitDx=0;exitDy=0;endArrow=none;endFill=0;" edge="1" parent="1" source="G3nKX9JDyX26bgXYhGSn-38" target="G3nKX9JDyX26bgXYhGSn-5">
          <mxGeometry relative="1" as="geometry" />
        </mxCell>
        <mxCell id="G3nKX9JDyX26bgXYhGSn-41" style="rounded=0;orthogonalLoop=1;jettySize=auto;html=1;exitX=1;exitY=0.5;exitDx=0;exitDy=0;endArrow=none;endFill=0;" edge="1" parent="1" source="G3nKX9JDyX26bgXYhGSn-38" target="G3nKX9JDyX26bgXYhGSn-2">
          <mxGeometry relative="1" as="geometry" />
        </mxCell>
        <mxCell id="G3nKX9JDyX26bgXYhGSn-38" value="Просмотр информации о готовности заказа" style="ellipse;whiteSpace=wrap;html=1;" vertex="1" parent="1">
          <mxGeometry x="160" y="490" width="180" height="40" as="geometry" />
        </mxCell>
        <mxCell id="G3nKX9JDyX26bgXYhGSn-39" value="Просмотр данных о клиенте, необходимых для доставки" style="ellipse;whiteSpace=wrap;html=1;" vertex="1" parent="1">
          <mxGeometry x="-120" y="540" width="200" height="50" as="geometry" />
        </mxCell>
      </root>
    </mxGraphModel>
  </diagram>
</mxfile>
